Coordinates
version=1
nRows=9
nColumns=24
inDegrees=yes

Units are S.I. units (second, meters, Newtons, ...)
Angles are in degrees.

endheader
time	pelvis_tilt	pelvis_list	pelvis_rotation	pelvis_tx	pelvis_ty	pelvis_tz	hip_flexion_r	hip_adduction_r	hip_rotation_r	knee_angle_r	ankle_angle_r	subtalar_angle_r	mtp_angle_r	hip_flexion_l	hip_adduction_l	hip_rotation_l	knee_angle_l	ankle_angle_l	subtalar_angle_l	mtp_angle_l	lumbar_extension	lumbar_bending	lumbar_rotation
      3.08500000	     -5.03390396	      8.65053550	     -1.04193106	     -0.56194622	     -0.01572716	     -0.16328191	     31.00582254	     -9.22474817	     -1.48861234	    -66.06246758	    -10.94273946	      9.10977514	     28.71247861	      9.22282929	     17.33907251	      0.38200032	    -11.71880484	      4.15945209	     -2.03190749	    -11.58510565	      6.08119576	    -10.68662390	     -3.65696817
      3.09000000	     -4.93357201	      8.41643093	     -0.93660737	     -0.55606193	     -0.01515143	     -0.16350505	     31.52335664	     -8.98543079	     -1.74970974	    -65.14317216	    -10.25750244	      9.14845932	     28.73666933	      8.40296879	     17.13051001	      0.67682069	    -11.37601322	      4.43790974	     -1.86011977	    -11.59980396	      5.92776399	    -10.44863953	     -3.81180065
      3.09500000	     -4.83111087	      8.18519250	     -0.81816278	     -0.55019164	     -0.01463109	     -0.16373386	     32.00753781	     -8.76030100	     -2.02000394	    -64.15988939	     -9.59747145	      9.18567971	     28.68275433	      7.59667791	     16.91646820	      0.93689236	    -11.05728028	      4.73258259	     -1.63668528	    -11.57062778	      5.76578006	    -10.21724839	     -3.98862390
      3.10000000	     -4.71934117	      7.96333966	     -0.68906700	     -0.54434442	     -0.01417498	     -0.16396316	     32.45659340	     -8.55355097	     -2.29437670	    -63.12664664	     -8.94302283	      9.21272938	     28.51883295	      6.79617288	     16.70499673	      1.16223346	    -10.76072106	      5.05621768	     -1.35547495	    -11.49695768	      5.58339702	     -9.99816637	     -4.17767653
      3.10500000	     -4.69066439	      7.72889792	     -0.57329521	     -0.53844324	     -0.01383984	     -0.16416043	     32.97080217	     -8.31540824	     -2.53186951	    -62.02265923	     -8.39333823	      9.25461069	     28.36730902	      6.09608122	     16.47274358	      1.34673808	    -10.47412759	      5.37464998	     -1.11672000	    -11.39965602	      5.51027426	     -9.76767224	     -4.35797982
      3.11000000	     -4.60661056	      7.49322072	     -0.42317764	     -0.53261266	     -0.01348279	     -0.16437662	     33.37911685	     -8.09526902	     -2.78804056	    -60.84865759	     -7.81398012	      9.30051920	     28.11973178	      5.35836085	     16.23474880	      1.52135385	    -10.22397843	      5.68023788	     -0.80356647	    -11.27482068	      5.34144536	     -9.53650835	     -4.61467647
      3.11500000	     -4.49954086	      7.28811093	     -0.28766915	     -0.52680527	     -0.01318926	     -0.16449399	     33.74735010	     -7.89071055	     -3.01519092	    -59.64532746	     -7.19298454	      9.33512965	     27.66515164	      4.61243022	     16.01423988	      1.67174426	     -9.99493827	      6.01114423	     -0.44155216	    -11.11489328	      5.14511259	     -9.34871324	     -4.82180738
      3.12000000	     -4.49644370	      7.05976876	     -0.15663419	     -0.52099861	     -0.01303053	     -0.16465016	     34.20466475	     -7.65626272	     -3.20474250	    -58.36195994	     -6.69816140	      9.41058535	     27.38848373	      3.99746137	     15.77887188	      1.81733965	     -9.78248575	      6.30161466	     -0.23756728	    -11.00970418	      5.06552709	     -9.12603999	     -5.06260114
      3.12500000	     -4.42629009	      6.84437535	     -0.02125463	     -0.51520718	     -0.01288077	     -0.16475539	     34.55508200	     -7.44352981	     -3.40662802	    -57.03173077	     -6.16217208	      9.48061371	     27.00407095	      3.31326349	     15.55044864	      1.98106356	     -9.57797413	      6.62671982	     -0.00991729	    -10.89516610	      4.90738774	     -8.93082642	     -5.31476561
